<svg xmlns="http://www.w3.org/2000/svg" viewBox="0 0 207.67 118.4"><path d="M128.26,61.5h-2.83a.12.12,0,0,1-.12-.11.12.12,0,0,1,.12-.12h2.83a.12.12,0,0,1,.12.12A.11.11,0,0,1,128.26,61.5Z" fill="#131c22"/><path d="M128.26,62.53h-1.91a.11.11,0,0,1-.11-.11.12.12,0,0,1,.11-.12h1.91a.12.12,0,0,1,.12.12A.11.11,0,0,1,128.26,62.53Z" fill="#131c22"/><path d="M128.45,60.37h-.77a.11.11,0,0,1-.11-.11.11.11,0,0,1,.11-.12h.77a.12.12,0,0,1,.12.12A.12.12,0,0,1,128.45,60.37Z" fill="#131c22"/><path d="M129.73,65.47H113.09V51.06h16.64v8.12a.12.12,0,0,1-.24,0v-7.9H113.32v14h16.17V63.75a.12.12,0,0,1,.24,0Z" fill="#131c22"/><path d="M126.35,62.42a1.2,1.2,0,0,1-.92-1s-.6-.88,0-1.21l2.23.08a1.12,1.12,0,0,1,1.1-1.27,3.05,3.05,0,0,1,.83.19v-8H123V65.35h6.57v-1.6C128.17,63.71,126.51,63.44,126.35,62.42Z" fill="#131c22"/><path d="M131.7,58.11h0a18,18,0,0,0-2.11-.92.11.11,0,0,1-.07-.14.12.12,0,0,1,.15-.07,20.46,20.46,0,0,1,2.11.91l4.75-.13a.13.13,0,0,1,.12.11.12.12,0,0,1-.12.12Z" fill="#131c22"/><path d="M130.14,63.87c-1.86,0-3.65-.29-3.89-1.36a1.3,1.3,0,0,1-.93-1.09,1.39,1.39,0,0,1-.25-1,.65.65,0,0,1,.32-.39h0l2.13.07a1.22,1.22,0,0,1,.28-.8,1.2,1.2,0,0,1,1-.46,10.1,10.1,0,0,1,2.83,1V58a.12.12,0,0,1,.24,0v2.29l-.17-.08a11.45,11.45,0,0,0-2.9-1.1,1,1,0,0,0-.77.37.91.91,0,0,0-.21.75l0,.15-2.35-.08a.32.32,0,0,0-.18.23,1.21,1.21,0,0,0,.23.79v.06a1.1,1.1,0,0,0,.84.93l.08,0v.07c.08.56.85,1.46,5.06,1.2.17,0,.2,0,.22,0a.11.11,0,0,1,.09.13.1.1,0,0,1-.13.09h-.17C131.09,63.85,130.61,63.87,130.14,63.87Z" fill="#131c22"/><path d="M152.21,68.56a.12.12,0,0,1-.12-.12V60.09a.11.11,0,0,1,.12-.11.11.11,0,0,1,.11.11v8.35A.11.11,0,0,1,152.21,68.56Z" fill="#131c22"/><path d="M137.05,68.44h15.27L151.09,92.1h-4.42c-.06-3.87-.29-10.22-1.95-14a8.62,8.62,0,0,0-3.84-5.23.11.11,0,0,0-.16,0,.11.11,0,0,0,0,.15A8.32,8.32,0,0,1,144.45,78c-1.64,1.94-2.58,9.74-2.93,14.08h-4.47Z" fill="#131c22"/><path d="M140.74,97.46h0a.11.11,0,0,1-.1-.12l.62-5.13h-3.94l.11,5.14a.1.1,0,0,1-.11.11h0a.12.12,0,0,1-.12-.11L137.08,92h4.43l-.65,5.38A.12.12,0,0,1,140.74,97.46Z" fill="#131c22"/><path d="M141.29,93h-4.08a.11.11,0,0,1-.11-.12.11.11,0,0,1,.11-.11h4.08a.11.11,0,0,1,.11.11A.11.11,0,0,1,141.29,93Z" fill="#131c22"/><path d="M141.17,93.91h-3.85a.12.12,0,0,1-.11-.12.11.11,0,0,1,.11-.11h3.85a.11.11,0,0,1,.12.11A.12.12,0,0,1,141.17,93.91Z" fill="#131c22"/><path d="M150.34,97.46h0a.11.11,0,0,1-.1-.12l.62-5.13h-3.93l.11,5.14a.11.11,0,0,1-.12.11h0a.11.11,0,0,1-.11-.11L146.67,92h4.43l-.65,5.38A.12.12,0,0,1,150.34,97.46Z" fill="#131c22"/><path d="M150.88,93H146.8a.11.11,0,0,1-.11-.12.11.11,0,0,1,.11-.11h4.08a.12.12,0,0,1,.12.11A.12.12,0,0,1,150.88,93Z" fill="#131c22"/><path d="M150.77,93.91h-3.86a.12.12,0,0,1-.11-.12.11.11,0,0,1,.11-.11h3.86a.11.11,0,0,1,.11.11A.12.12,0,0,1,150.77,93.91Z" fill="#131c22"/><path d="M150.45,97.35s1,1.06.6,4h-10a1.55,1.55,0,0,1,1-2c1.52-.45,4.15-.17,4.69-2Z" fill="#131c22"/><path d="M136.64,65.51l-4.84-.45V59.38h.13a35.9,35.9,0,0,0,4.4.09c.36-4.23,2.1-11.43,9.67-13h0c.13,0,4.88-.92,7.47,4.21,0,.06,1.9,5-.91,9.13C150.05,63.49,144.69,65.41,136.64,65.51ZM132,64.85l4.62.43c8-.09,13.25-2,15.72-5.61,2.74-4,.9-8.86.89-8.9a6.82,6.82,0,0,0-7-4.11,9.66,9.66,0,0,1,1.69,6.07,5.22,5.22,0,0,1-1.71,4.11c-2.29,2.1-6.47,2.72-9.73,2.86h-.09a38.78,38.78,0,0,1-4.37-.08ZM146,46.7c-3.9.84-8.65,3.75-9.41,12.77,3.2-.14,7.27-.76,9.49-2.8a5,5,0,0,0,1.64-3.93A9.47,9.47,0,0,0,146,46.7Z" fill="#131c22"/><path d="M137.16,68.61a.12.12,0,0,1-.11-.09s-.31-1.49-.53-3.11a.13.13,0,0,1,.1-.13.11.11,0,0,1,.13.1c.22,1.61.52,3.07.52,3.09a.1.1,0,0,1-.09.13Z" fill="#131c22"/><path d="M139.93,40.25A1.25,1.25,0,1,1,141.19,39,1.25,1.25,0,0,1,139.93,40.25Zm0-2.26a1,1,0,1,0,1,1A1,1,0,0,0,139.93,38Z" fill="#131c22"/><path d="M143,40.25A1.25,1.25,0,1,1,144.3,39,1.24,1.24,0,0,1,143,40.25ZM143,38a1,1,0,1,0,1,1A1,1,0,0,0,143,38Z" fill="#131c22"/><path d="M142.64,47.94a.12.12,0,0,1-.12-.11v-3.9a3.35,3.35,0,0,1-3.07-3.77.13.13,0,0,1,.12-.11c.07,0,.12.06.11.12-.1,2,.9,3.19,3,3.56h.1v4.09A.12.12,0,0,1,142.64,47.94Z" fill="#131c22"/><path d="M140.05,38h0a.11.11,0,0,1-.08-.14,2.08,2.08,0,0,1,1.14-1.41.11.11,0,0,1,.15.06.11.11,0,0,1-.06.15,1.89,1.89,0,0,0-1,1.27A.11.11,0,0,1,140.05,38Z" fill="#131c22"/><path d="M146.08,46.76a.12.12,0,0,1-.12-.12V43a.12.12,0,0,1,.24,0v3.62A.12.12,0,0,1,146.08,46.76Z" fill="#131c22"/><path d="M146.91,37.18a13.3,13.3,0,0,1-2.29,0c.12,0,1.86.1,1.46,2.25,0,.36.19.41.44.33a.88.88,0,0,1,.78-.45.9.9,0,0,1,.9.89c0,.65-.57.74-.74.83a2.13,2.13,0,0,1-1.38,1.88l.1.83C146.65,44,152.3,41.09,146.91,37.18Z" fill="#131c22"/><path d="M149.06,41.36a.11.11,0,0,1-.07,0,.11.11,0,0,1,0-.16,4.65,4.65,0,0,0,1.26-3,4.15,4.15,0,0,0-4.16-4.13,3.5,3.5,0,0,0-1.9.46.12.12,0,0,1-.16,0,.11.11,0,0,1,0-.15,3.79,3.79,0,0,1,2-.49,4.39,4.39,0,0,1,4.4,4.36,4.92,4.92,0,0,1-1.33,3.11A.12.12,0,0,1,149.06,41.36Z" fill="#131c22"/><path d="M145.44,37.32c-3,0-5-.63-5.94-1.88a3,3,0,0,1-.44-2.63h0c.34-.8.79-1.25,1.35-1.33,1-.14,2,1,2,1.08L147,37.27h-.25C146.3,37.31,145.86,37.32,145.44,37.32Zm-6.16-4.43a2.78,2.78,0,0,0,.41,2.41c1,1.31,3.34,1.92,6.8,1.76l-4.22-4.36s-.93-1.12-1.82-1C140,31.77,139.59,32.17,139.28,32.89Z" fill="#131c22"/><path d="M140.72,100.45a2.06,2.06,0,0,1,.81-1,3.56,3.56,0,0,0-.68-2.06h-3.67c-.54,1.83-3.18,1.55-4.69,2a1.55,1.55,0,0,0-1,2h9.31A1.4,1.4,0,0,1,140.72,100.45Z" fill="#131c22"/><path d="M114.3,57.34v.11h0a7.13,7.13,0,0,0,2.72-1v.14a7.26,7.26,0,0,0,3.57-5.57h-.23A7.09,7.09,0,0,1,114.3,57.34Z" fill="#131c22"/><path d="M114.08,57.48a0,0,0,0,1,0,0v-.08c-.25,0-.51,0-.78,0h-.2v.12h.2A6.85,6.85,0,0,0,114.08,57.48Z" fill="#131c22"/><path d="M117,56.49a7.13,7.13,0,0,1-2.72,1,.12.12,0,0,1-.11.11.1.1,0,0,1-.11-.08,6.85,6.85,0,0,1-.79,0h-.2v4.71h1.6A2.31,2.31,0,0,0,117,59.92V56.49Z" fill="#131c22"/><path d="M114.08,57.48a.1.1,0,0,0,.11.08.12.12,0,0,0,.11-.11h0V53.4l-.23,0v4A0,0,0,0,0,114.08,57.48Z" fill="#131c22"/><path d="M116.3,52.11a3.62,3.62,0,0,0,.54-1h-.24a3.74,3.74,0,0,1-.49.92,3.17,3.17,0,0,1-1.81,1.18,3.53,3.53,0,0,1,.33-2.1h-.25a3.68,3.68,0,0,0-.3,2.15,2.71,2.71,0,0,1-.47,0h-.52v.23h.54a3.42,3.42,0,0,0,.44,0l.23,0A3.43,3.43,0,0,0,116.3,52.11Z" fill="#131c22"/><polygon points="120.01 53.98 121.76 54.87 121.88 54.65 120.12 53.77 120.01 53.98" fill="#131c22"/><path d="M89.86,100a14.14,14.14,0,0,1,2.79-1,3.75,3.75,0,0,1-1.13-2.73l-1-.85-2.13,4.94a1.41,1.41,0,0,1-.93.85H85.32c-1-.82,1.64-1.83,1.64-1.83l.57-7.11a9.52,9.52,0,0,1-1.89-3.11C85.11,87.5,83.83,87,84.31,82a2,2,0,0,0-.38-2.07s-.52-1.74,1.71-1.08c0,0,1,6.31,1.28,6.45S88.53,83.5,89,83.41s-1.37-1,0-3.21a3,3,0,0,0,1.76-.56s1.47-.42,2.94,1.32a5.49,5.49,0,0,1,2-.76s.14,4.1-2.09,6.55a11.12,11.12,0,0,1,6.26,10.31,1.11,1.11,0,0,0,1,.82c7.54.79,3-6.61,3-6.61l-1.42-1.76c-.24-.36-.56-.94-.2-1.18a1,1,0,0,1,1.21.3l1.46,1.76c.46.54,3.31,4.32.94,8-1.9,3-8.29,2.78-8.29,2.78H88.81S88.58,100.59,89.86,100Z" fill="#131c22"/><path d="M88.73,45h3.48a.14.14,0,1,0,0-.28H88.73a.14.14,0,1,0,0,.28Z" fill="#131c22"/><path d="M88.73,46.22h2.35a.14.14,0,0,0,0-.28H88.73a.14.14,0,0,0,0,.28Z" fill="#131c22"/><path d="M88.5,43.56h.94a.14.14,0,0,0,0-.28H88.5a.14.14,0,1,0,0,.28Z" fill="#131c22"/><path d="M98.08,49.69A9.2,9.2,0,0,1,98,48.52a9,9,0,0,1,9-8.94h.26v.28H107a8.7,8.7,0,0,0-8.72,8.66,9.2,9.2,0,0,0,.08,1.17Z" fill="#131c22"/><path d="M103,47.5a1.21,1.21,0,0,1,1.38.14,4.29,4.29,0,0,1,1.48,2h-.3a3.93,3.93,0,0,0-1.34-1.82,1.22,1.22,0,0,0-.68-.25.79.79,0,0,0-.38.11c-.42.31-.41,1.11,0,2h-.31C102.37,48.75,102.42,47.88,103,47.5Z" fill="#131c22"/><polygon points="99.31 43.08 99.15 43.33 97.13 42.01 97.29 41.76 99.31 43.08" fill="#131c22"/><path d="M86.93,49.83H107.4V32.1H86.93v10a.14.14,0,1,0,.28,0V32.38h19.91V49.55H87.21V47.72a.14.14,0,0,0-.28,0Z" fill="#131c22"/><path d="M91.08,46.08a1.47,1.47,0,0,0,1.13-1.27s.74-1.08,0-1.48l-2.75.09a1.36,1.36,0,0,0-1.35-1.55,3.48,3.48,0,0,0-1,.23V32.24h8.09V49.69H87.07v-2C88.84,47.66,90.89,47.33,91.08,46.08Z" fill="#131c22"/><polygon points="63.31 96.02 65.02 73.93 64.73 73.91 63.02 96 63.31 96.02" fill="#131c22"/><polygon points="58.72 96.02 59 96 57.3 73.91 57.01 73.93 58.72 96.02" fill="#131c22"/><polygon points="63.17 96.01 58.86 96.01 58.6 92.66 63.42 92.66 63.17 96.01" fill="#131c22"/><path d="M57.87,100H70.61v1.34H57.87Zm12.46.28H58.15v.78H70.33Z" fill="#131c22"/><path d="M57.87,100.15h.28a9.06,9.06,0,0,1,1-4.26l-.25-.13A9.12,9.12,0,0,0,57.87,100.15Z" fill="#131c22"/><path d="M70.33,100.15h.28c0-1.52-1.13-2.41-3.79-3a12.8,12.8,0,0,1-3.56-1.47l-.16.24a13.62,13.62,0,0,0,3.66,1.51C69.9,98.12,70.33,99.19,70.33,100.15Z" fill="#131c22"/><polygon points="72.98 96.02 74.69 73.93 74.4 73.91 72.69 96 72.98 96.02" fill="#131c22"/><polygon points="68.39 96.02 68.67 96 66.97 73.91 66.68 73.93 68.39 96.02" fill="#131c22"/><polygon points="72.84 96.01 68.53 96.01 68.27 92.66 73.1 92.66 72.84 96.01" fill="#131c22"/><path d="M67.54,100H80.28v1.34H67.54Zm12.46.28H67.82v.78H80Z" fill="#131c22"/><path d="M67.54,100.15h.28a9.15,9.15,0,0,1,1-4.26l-.25-.13A9.12,9.12,0,0,0,67.54,100.15Z" fill="#131c22"/><path d="M80,100.15h.28c0-1.52-1.13-2.41-3.79-3a12.8,12.8,0,0,1-3.56-1.47l-.15.24a13.32,13.32,0,0,0,3.65,1.51C79.57,98.12,80,99.19,80,100.15Z" fill="#131c22"/><path d="M53.63,73.93c-.71-30.68,4.52-39.38,6.79-41.69a4.39,4.39,0,0,1,3.1-1.51A6.34,6.34,0,0,1,67.79,33c2.32,2.35,9.83,12.26,9.16,40.94v.13H53.64Zm14-40.74A6.1,6.1,0,0,0,63.52,31a4.05,4.05,0,0,0-2.89,1.42c-2.25,2.28-7.4,10.88-6.72,41.34H76.67C77.3,45.32,69.88,35.52,67.59,33.19Z" fill="#131c22"/><path d="M69.29,17.23h.06a1.92,1.92,0,0,1,1.47,1.65,4.38,4.38,0,0,1-2,4.14c-3.56,3.63-3.88,6.09-3.53,8.27a3.63,3.63,0,0,0-3.4,0S56.6,15.16,69.29,17.23Z" fill="#131c22"/><path d="M71.6,18.94h0A10.26,10.26,0,0,1,74,24.72a8.19,8.19,0,0,1-.47,3.33c-.81,2.2-2.25,6.1-1.44,7.22.23.32,2.8,4.19,2,8.06,0,.1,0,.2,0,.3h-.67l-2.5-6a23.61,23.61,0,0,0-3.55-4.88c-.64-4,.36-4.88.36-4.88a3,3,0,0,0,2.09-.33c1.58-2.35,1.38-4.08.79-5.22a7.06,7.06,0,0,0,.59-3.79Z" fill="#131c22"/><path d="M65.59,52.89h19v-9.8h-.14l-17.22.61V32.61a.15.15,0,0,0-.14-.14.15.15,0,0,0-.15.14V44l17.37-.61V52.6H65.81a7.36,7.36,0,0,1-5.42-2.22c-2.48-2.57-3.35-7-2.57-13.23A.15.15,0,0,0,57.7,37a.15.15,0,0,0-.16.13c-.79,6.3.1,10.83,2.65,13.46A7.72,7.72,0,0,0,65.59,52.89Z" fill="#131c22"/><path d="M84.49,40.78l0,0a25.5,25.5,0,0,1,2.58-1.12.14.14,0,0,0,.09-.18.15.15,0,0,0-.18-.09,24.57,24.57,0,0,0-2.59,1.13l-10.2-.16a.14.14,0,0,0,0,.28Z" fill="#131c22"/><path d="M86.41,47.87c2.3,0,4.5-.36,4.79-1.68a1.58,1.58,0,0,0,1.15-1.34,1.7,1.7,0,0,0,.3-1.16.71.71,0,0,0-.39-.49l0,0-2.62.09a1.43,1.43,0,0,0-.34-1,1.45,1.45,0,0,0-1.17-.56A12.88,12.88,0,0,0,84.6,43V40.64a.14.14,0,0,0-.28,0v2.82l.21-.1A14.14,14.14,0,0,1,88.09,42a1.22,1.22,0,0,1,1,.45,1.19,1.19,0,0,1,.26.93l0,.18,2.9-.1a.45.45,0,0,1,.21.28,1.56,1.56,0,0,1-.27,1l0,0v0a1.34,1.34,0,0,1-1,1.14L91,46v.1c-.11.69-1.06,1.8-6.23,1.47a.79.79,0,0,0-.27,0,.14.14,0,0,0-.12.16.14.14,0,0,0,.16.12h.21C85.25,47.85,85.83,47.87,86.41,47.87Z" fill="#131c22"/></svg>